<?xml version="1.0" encoding="iso-8859-1"?>
<!-- Generator: Adobe Illustrator 18.0.0, SVG Export Plug-In . SVG Version: 6.00 Build 0)  -->
<!DOCTYPE svg PUBLIC "-//W3C//DTD SVG 1.1//EN" "http://www.w3.org/Graphics/SVG/1.1/DTD/svg11.dtd">
<svg version="1.1" id="Capa_1" xmlns="http://www.w3.org/2000/svg" xmlns:xlink="http://www.w3.org/1999/xlink" x="0px" y="0px"
	 viewBox="0 0 212.973 212.973" style="enable-background:new 0 0 212.973 212.973;" xml:space="preserve">
<g>
	<rect x="38.615" y="35.462" width="36.743" height="12"/>
	<path d="M171.846,48.966c1.971,0,3.9-0.8,5.301-2.2c1.399-1.4,2.199-3.33,2.199-5.3c0-1.98-0.8-3.91-2.199-5.31
		c-1.4-1.39-3.33-2.19-5.301-2.19c-1.98,0-3.909,0.8-5.31,2.19c-1.39,1.4-2.19,3.33-2.19,5.31c0,1.97,0.801,3.9,2.19,5.3
		C167.936,48.166,169.866,48.966,171.846,48.966z"/>
	<path d="M139.536,46.766c1.4,1.39,3.33,2.2,5.31,2.2c1.971,0,3.9-0.81,5.301-2.2c1.399-1.4,2.199-3.33,2.199-5.3
		c0-1.98-0.8-3.91-2.199-5.31c-1.4-1.39-3.33-2.19-5.301-2.19c-1.98,0-3.909,0.8-5.31,2.19c-1.39,1.4-2.19,3.33-2.19,5.31
		C137.346,43.436,138.146,45.376,139.536,46.766z"/>
	<path d="M0,10.677v191.618h212.973V10.677H0z M197.973,57.249h-85.495l0.001-31.571h85.494V57.249z M100.479,25.677l-0.001,31.571
		H15V25.677H100.479z M15,187.295V72.249h85.477l-0.002,63.038l-22.106-22.108l-8.486,8.485l36.593,36.593l36.616-36.617
		l-8.486-8.485l-22.13,22.131l0.002-63.038h85.496v115.047H15z"/>
</g>
<g>
</g>
<g>
</g>
<g>
</g>
<g>
</g>
<g>
</g>
<g>
</g>
<g>
</g>
<g>
</g>
<g>
</g>
<g>
</g>
<g>
</g>
<g>
</g>
<g>
</g>
<g>
</g>
<g>
</g>
</svg>
